<svg width="20" height="21" viewBox="0 0 20 21" fill="none" xmlns="http://www.w3.org/2000/svg">
<path fill-rule="evenodd" clip-rule="evenodd" d="M8 10.8472L18 9.1805V13.4666C17.408 13.1687 16.7232 13 16 13C13.8271 13 12 14.5226 12 16.5C12 18.4775 13.8271 20 16 20C18.1729 20 20 18.4775 20 16.5V0.81958L6 3.15291V14.4666C5.40804 14.1687 4.72317 14 4 14C1.82708 14 0 15.5226 0 17.5C0 19.4775 1.82708 21 4 21C6.17292 21 8 19.4775 8 17.5V10.8472ZM6 17.5C6 18.284 5.14079 19 4 19C2.85921 19 2 18.284 2 17.5C2 16.7161 2.85921 16 4 16C5.14079 16 6 16.7161 6 17.5ZM16 18C17.1408 18 18 17.284 18 16.5C18 15.7161 17.1408 15 16 15C14.8592 15 14 15.7161 14 16.5C14 17.284 14.8592 18 16 18ZM8 8.81958V4.84717L18 3.1805V7.15291L8 8.81958Z" fill="black"/>
</svg>
