<svg width="78" height="78" viewBox="0 0 78 78" fill="none" xmlns="http://www.w3.org/2000/svg">
<path d="M39 68.2499C55.1543 68.2499 68.25 55.1542 68.25 38.9999C68.25 22.8455 55.1543 9.74976 39 9.74976C22.8457 9.74976 9.75 22.8455 9.75 38.9999C9.75 55.1542 22.8457 68.2499 39 68.2499Z" fill="url(#paint0_linear_6_127)"/>
<path opacity="0.2" d="M42.2722 22.7817L37.7749 30.9321L28.6184 53.0283L24.74 64.4985L24.8098 64.5684C29.1507 66.9802 34.0341 68.2472 39 68.25C45.3789 68.2436 51.5808 66.1522 56.6609 62.2943C61.7409 58.4364 65.4205 53.0236 67.1392 46.8806L42.2722 22.7817Z" fill="url(#paint1_linear_6_127)"/>
<path opacity="0.15" d="M68.2151 38.0479C68.0394 45.6822 64.8851 52.9451 59.4262 58.2849C53.9672 63.6247 46.6364 66.6179 39 66.625C31.4106 66.62 24.1204 63.6653 18.669 58.3851C13.2176 53.1048 10.032 45.9125 9.78491 38.3271C9.77069 38.5513 9.75905 38.7756 9.75 39C9.75 46.7576 12.8317 54.1974 18.3171 59.6829C23.8026 65.1683 31.2424 68.25 39 68.25C46.7576 68.25 54.1974 65.1683 59.6829 59.6829C65.1683 54.1974 68.25 46.7576 68.25 39C68.2435 38.6824 68.2319 38.365 68.2151 38.0479Z" fill="black"/>
<path d="M37.8594 28.0625L33.6375 30.5L55.5751 68.497L60.1235 71.5L59.797 66.0595L37.8594 28.0625Z" fill="#DCDCDC"/>
<path d="M56.875 35.7366C56.875 42.2501 54.9394 43.7952 52.5839 46.5476C51.3665 47.9503 49.9374 49.1413 48.2965 50.041C46.0733 51.285 42.6934 51.9731 39.9674 51.9731C37.2414 51.9731 34.6742 51.2585 32.4776 50.041C30.875 48.7501 27.625 53.6251 29.7781 54.2642C32.7952 55.9581 36.2887 56.8751 39.9939 56.8751C43.6991 56.8751 48.0054 55.9581 51.0224 54.2642C52.6369 53.3644 54.1189 52.2529 55.4158 50.9825C59.3327 47.1713 61.794 41.6654 61.794 35.7635C60.1228 35.7473 58.357 35.7635 56.875 35.7473V35.7366Z" fill="#C3C3C3"/>
<path d="M40.1391 28.0625L44.3609 30.5L22.4234 68.497L17.875 71.5L18.2015 66.0595L40.1391 28.0625Z" fill="#C3C3C3"/>
<path d="M44.0599 27.6251H42.25V22.7757V22.7498H38.9868H35.75V22.7757V27.6251H33.9136C32.249 27.6251 30.875 29.0006 30.875 30.6462V38.6015H30.9014C30.875 38.8628 31.0335 39.1502 31.377 39.4896L37.4807 44.8732C37.9034 45.2912 38.4583 45.5001 38.9868 45.5001V45.4741L39.0132 45.5001C39.5681 45.5001 40.123 45.2912 40.5193 44.8732L46.6229 39.4896C46.9664 39.1502 47.0985 38.8367 47.0985 38.6015H47.125V30.6724C47.0985 29.0008 45.751 27.6251 44.06 27.6251H44.0599Z" fill="url(#paint2_linear_6_127)"/>
<path d="M39.0106 37.3749H38.9894C37.2109 37.3749 35.75 35.9284 35.75 34.1466C35.75 32.3646 37.2109 30.918 38.9894 30.918V30.8757L39.0106 30.918C40.7891 30.9391 42.25 32.3646 42.25 34.1466C42.25 35.9284 40.7891 37.354 39.0106 37.3749Z" fill="url(#paint3_radial_6_127)"/>
<defs>
<linearGradient id="paint0_linear_6_127" x1="40.625" y1="68.2499" x2="40.625" y2="9.74976" gradientUnits="userSpaceOnUse">
<stop stop-color="#3B962D"/>
<stop offset="1" stop-color="#93D169"/>
</linearGradient>
<linearGradient id="paint1_linear_6_127" x1="32.5" y1="27.625" x2="61.75" y2="56.875" gradientUnits="userSpaceOnUse">
<stop/>
<stop offset="1" stop-opacity="0"/>
</linearGradient>
<linearGradient id="paint2_linear_6_127" x1="39" y1="45.4997" x2="39" y2="22.7498" gradientUnits="userSpaceOnUse">
<stop stop-color="#272B2D"/>
<stop offset="1" stop-color="#3E4447"/>
</linearGradient>
<radialGradient id="paint3_radial_6_127" cx="0" cy="0" r="1" gradientUnits="userSpaceOnUse" gradientTransform="translate(39 34.1246) scale(3.25 3.2496)">
<stop stop-color="#ACACAC"/>
<stop offset="1" stop-color="#CBCBCB"/>
</radialGradient>
</defs>
</svg>
