<svg width="66" height="58" viewBox="0 0 66 58" fill="none" xmlns="http://www.w3.org/2000/svg">
<g clip-path="url(#clip0_6_115)">
<path d="M4.60451 47.9641C2.3351 47.9641 0.00152588 49.795 0.00152588 52.9996C0.00152588 55.9293 2.05327 57.9986 4.60451 57.9986C6.71041 57.9986 7.64899 56.5756 7.64899 56.5756V57.1959C7.64899 57.4891 7.92433 57.8162 8.26513 57.8162H9.78738V48.183H7.64899V49.4054C7.64899 49.4054 6.70255 47.9641 4.60451 47.9641V47.9641ZM4.98543 49.9339C6.85363 49.9339 7.83361 51.588 7.83361 52.9989C7.83361 54.5704 6.67007 56.0629 4.98939 56.0629C3.58444 56.0629 2.17709 54.9173 2.17709 52.9782C2.17709 51.2278 3.38821 49.9339 4.98543 49.9339Z" fill="black"/>
<path d="M12.7595 57.8159C12.4309 57.8159 12.1433 57.5787 12.1433 57.1956V48.1828H14.2817V49.3749C14.7663 48.6416 15.7129 47.9609 17.166 47.9609C19.5409 47.9609 20.8056 49.867 20.8056 51.6493V57.8159H19.3196C18.9299 57.8159 18.6672 57.4875 18.6672 57.1591V52.1236C18.6672 51.1357 18.066 49.9359 16.6755 49.9359C15.1751 49.9359 14.2817 51.3634 14.2817 52.7074V57.8159L12.7595 57.8159Z" fill="black"/>
<path d="M27.0393 47.9641C24.7699 47.9641 22.4364 49.795 22.4364 52.9996C22.4364 55.9293 24.4881 57.9986 27.0393 57.9986C29.1452 57.9986 30.0838 56.5755 30.0838 56.5755V57.1958C30.0838 57.489 30.3592 57.8162 30.7 57.8162H32.2222V43.3665H30.0838V49.4054C30.0838 49.4054 29.1374 47.9641 27.0393 47.9641V47.9641ZM27.4203 49.9339C29.2885 49.9339 30.2684 51.588 30.2684 52.9989C30.2684 54.5704 29.1049 56.0628 27.4242 56.0628C26.0193 56.0628 24.6119 54.9173 24.6119 52.9782C24.6119 51.2277 25.823 49.9339 27.4203 49.9339Z" fill="black"/>
<path d="M35.1943 57.8161C34.8657 57.8161 34.5781 57.5788 34.5781 57.1958V48.183H36.7165V49.7885C37.0846 48.8891 37.8788 48.0735 39.2898 48.0735C39.6832 48.0735 40.051 48.1465 40.051 48.1465V50.3723C40.051 50.3723 39.5917 50.1898 39.0361 50.1898C37.5357 50.1898 36.7165 51.6174 36.7165 52.9614V57.8161H35.1943Z" fill="black"/>
<path d="M53.0261 57.816C52.6976 57.816 52.41 57.5787 52.41 57.1957V48.1829H54.5484V57.816L53.0261 57.816Z" fill="black"/>
<path d="M60.8185 47.9641C58.5491 47.9641 56.2155 49.795 56.2155 52.9996C56.2155 55.9293 58.2673 57.9986 60.8185 57.9986C62.9244 57.9986 63.863 56.5755 63.863 56.5755V57.1958C63.863 57.489 64.1383 57.8162 64.4791 57.8162H66.0013V43.3665H63.863V49.4054C63.863 49.4054 62.9165 47.9641 60.8185 47.9641V47.9641ZM61.1994 49.9339C63.0676 49.9339 64.0476 51.588 64.0476 52.9989C64.0476 54.5704 62.884 56.0628 61.2034 56.0628C59.7984 56.0628 58.3911 54.9173 58.3911 52.9782C58.3911 51.2277 59.6022 49.9339 61.1994 49.9339Z" fill="black"/>
<path d="M53.4641 46.1055C54.245 46.1055 54.878 45.4682 54.878 44.682C54.878 43.8959 54.245 43.2585 53.4641 43.2585C52.6833 43.2585 52.0502 43.8959 52.0502 44.682C52.0502 45.4682 52.6833 46.1055 53.4641 46.1055Z" fill="black"/>
<path d="M45.6905 47.9607C43.3139 47.9607 40.7027 49.7468 40.7027 52.9823C40.7027 55.9307 42.9268 57.9988 45.6854 57.9988C49.085 57.9988 50.7451 55.2473 50.7451 53.001C50.7451 50.2445 48.6075 47.9607 45.6905 47.9607ZM45.6983 49.9712C47.3419 49.9712 48.5678 51.3048 48.5678 52.9884C48.5678 54.7011 47.2664 56.0228 45.7032 56.0228C44.2521 56.0228 42.8415 54.8339 42.8415 53.0171C42.8415 51.1701 44.1831 49.9712 45.6983 49.9712Z" fill="black"/>
<path d="M49.1083 11.2186L54.5795 1.67683C54.8882 1.14192 54.7015 0.462417 54.1774 0.151584C53.6532 -0.159244 52.9711 0.0214666 52.6696 0.556387L47.1266 10.2211C42.8975 8.27658 38.1371 7.19227 33.0177 7.19227C27.8984 7.19227 23.138 8.27657 18.9089 10.2211L13.3659 0.556387C13.0572 0.0214666 12.3822 -0.159244 11.8509 0.151584C11.3196 0.462417 11.1401 1.14192 11.4488 1.67683L16.92 11.2186C7.48544 16.3655 1.09518 25.9796 0.0397339 37.2345H65.9958C64.9404 25.9795 58.5501 16.3654 49.1083 11.2186H49.1083ZM17.875 27.9096C16.3456 27.9096 15.1107 26.659 15.1107 25.1266C15.1107 23.5869 16.3528 22.3435 17.875 22.3435C19.4044 22.3435 20.6393 23.5941 20.6393 25.1266C20.6465 26.659 19.4043 27.9096 17.875 27.9096ZM48.1534 27.9096C46.624 27.9096 45.3891 26.659 45.3891 25.1266C45.3891 23.5869 46.6312 22.3435 48.1534 22.3435C49.6827 22.3435 50.9177 23.5941 50.9177 25.1266C50.9249 26.659 49.6827 27.9096 48.1534 27.9096Z" fill="#32DE84"/>
</g>
<defs>
<clipPath id="clip0_6_115">
<rect width="66" height="58" fill="white"/>
</clipPath>
</defs>
</svg>
