<svg width="50" height="70" viewBox="0 0 50 70" fill="none" xmlns="http://www.w3.org/2000/svg">
<g clip-path="url(#clip0_76_35)">
<path d="M50 13.7566L45.4449 64.3697L24.9694 70L4.5503 64.3777L0 13.7566H50Z" fill="#264DE4"/>
<path d="M41.5452 61.147L45.4378 17.8958H25V65.6966L41.5452 61.147Z" fill="#2965F1"/>
<path d="M10.4315 36.6704L10.9925 42.8788H25V36.6704H10.4315Z" fill="#EBEBEB"/>
<path d="M25 24.1042H24.9784H9.3042L9.87321 30.3128H25V24.1042Z" fill="#EBEBEB"/>
<path d="M25 59.2536V52.7942L24.9726 52.8015L18.0013 50.9345L17.5557 45.9829H14.1682H11.2722L12.1491 55.7311L24.9712 59.2616L25 59.2536Z" fill="#EBEBEB"/>
<path d="M11.7672 0H19.3485V3.14453H14.9375V6.28906H19.3485V9.43359H11.7672V0Z" fill="black"/>
<path d="M20.8647 0H28.4461V2.73438H24.0351V3.28125H28.4461V9.57031H20.8647V6.69922H25.2757V6.15234H20.8647V0Z" fill="black"/>
<path d="M29.9623 0H37.5436V2.73438H33.1326V3.28125H37.5436V9.57031H29.9623V6.69922H34.3732V6.15234H29.9623V0Z" fill="black"/>
<path d="M32.6862 42.8787L31.9596 50.9307L24.9783 52.7996V59.2587L37.8106 55.7313L37.9047 54.6824L39.3757 38.3375L39.5284 36.6703L40.6584 24.1042H24.9783V30.3128H33.7986L33.229 36.6703H24.9783V42.8787H32.6862Z" fill="white"/>
</g>
<defs>
<clipPath id="clip0_76_35">
<rect width="50" height="70" fill="white"/>
</clipPath>
</defs>
</svg>
