<svg width="139" height="139" viewBox="0 0 139 139" fill="none" xmlns="http://www.w3.org/2000/svg">
<mask id="mask0_6_105" style="mask-type:alpha" maskUnits="userSpaceOnUse" x="0" y="0" width="139" height="139">
<path d="M69.5 0C107.915 0 139 31.0855 139 69.5C139 107.915 107.915 139 69.5 139C31.0855 139 0 107.915 0 69.5C0 31.0855 31.0855 0 69.5 0Z" fill="white"/>
</mask>
<g mask="url(#mask0_6_105)">
<g filter="url(#filter0_d_6_105)">
<path d="M69.5 1.62891C107.014 1.62891 137.371 31.9858 137.371 69.5C137.371 107.014 107.014 137.371 69.5 137.371C31.9858 137.371 1.62891 107.014 1.62891 69.5C1.62891 31.9858 31.9858 1.62891 69.5 1.62891Z" fill="black"/>
</g>
<path d="M69.5 1.62891C107.014 1.62891 137.371 31.9858 137.371 69.5C137.371 107.014 107.014 137.371 69.5 137.371C31.9858 137.371 1.62891 107.014 1.62891 69.5C1.62891 31.9858 31.9858 1.62891 69.5 1.62891Z" fill="white"/>
<path d="M69.5 4.01025C105.698 4.01025 134.99 33.302 134.99 69.4999C134.99 105.698 105.698 134.99 69.5 134.99C33.3021 134.99 4.01038 105.698 4.01038 69.4999C4.01038 33.302 33.3021 4.01025 69.5 4.01025Z" fill="#5C5C5E"/>
<path d="M104.269 98.3155C101.888 105.698 98.3155 111.175 93.3145 115.224C88.3134 119.272 81.6454 121.415 73.3104 122.13L71.6433 111.175C77.1207 110.461 81.1691 109.27 83.7887 107.365C84.7413 106.651 86.6464 104.507 86.6464 104.507L66.8805 41.1609H83.3124L94.7433 88.5516L106.889 41.1609H122.844L104.269 98.3155ZM46.8763 39.0176C50.6867 39.0176 54.2588 39.4939 57.1165 40.6846C60.2124 41.8753 63.0702 43.5423 65.9279 45.9238L59.2598 54.9732C57.3547 53.5444 55.4495 52.5918 53.7825 51.8774C52.1155 51.1629 49.9722 50.9248 48.0671 50.9248C39.9702 50.9248 35.9217 57.1165 35.9217 69.7382C35.9217 76.1681 36.8743 80.6928 39.0176 83.3124C41.1609 86.1701 44.0186 87.3609 48.0671 87.3609C49.9722 87.3609 51.8774 87.1227 53.5444 86.4083C55.2114 85.6938 57.1166 84.7413 59.498 83.3124L66.166 92.8382C60.6887 97.3629 54.497 99.5062 47.3526 99.5062C41.6372 99.5062 36.8743 98.3155 32.5877 95.934C28.5392 93.5526 25.2052 89.9804 23.0619 85.4557C20.9186 80.931 19.7279 75.6918 19.7279 69.5C19.7279 63.5464 20.9186 58.0691 23.0619 53.5444C25.2052 48.7815 28.5392 45.2093 32.5877 42.5897C36.6361 40.4464 41.399 39.0176 46.8763 39.0176Z" fill="white"/>
</g>
<defs>
<filter id="filter0_d_6_105" x="-2.37109" y="-2.37109" width="143.742" height="143.742" filterUnits="userSpaceOnUse" color-interpolation-filters="sRGB">
<feFlood flood-opacity="0" result="BackgroundImageFix"/>
<feColorMatrix in="SourceAlpha" type="matrix" values="0 0 0 0 0 0 0 0 0 0 0 0 0 0 0 0 0 0 127 0" result="hardAlpha"/>
<feOffset/>
<feGaussianBlur stdDeviation="2"/>
<feColorMatrix type="matrix" values="0 0 0 0 0 0 0 0 0 0 0 0 0 0 0 0 0 0 0.3 0"/>
<feBlend mode="normal" in2="BackgroundImageFix" result="effect1_dropShadow_6_105"/>
<feBlend mode="normal" in="SourceGraphic" in2="effect1_dropShadow_6_105" result="shape"/>
</filter>
</defs>
</svg>
